<svg width="20" height="20" viewBox="0 0 20 20" fill="none" xmlns="http://www.w3.org/2000/svg">
<g clip-path="url(#clip0_525_441)">
<path d="M0.833252 3.33325V8.33325H5.83325" stroke="white" stroke-width="2" stroke-linecap="round" stroke-linejoin="round"/>
<path d="M19.1667 16.6665V11.6665H14.1667" stroke="white" stroke-width="2" stroke-linecap="round" stroke-linejoin="round"/>
<path d="M17.0749 7.49998C16.6523 6.30564 15.934 5.23782 14.987 4.39616C14.0401 3.55451 12.8954 2.96645 11.6597 2.68686C10.424 2.40727 9.13762 2.44527 7.92059 2.79729C6.70356 3.14932 5.59554 3.80391 4.69992 4.69998L0.833252 8.33331M19.1666 11.6666L15.2999 15.3C14.4043 16.1961 13.2963 16.8506 12.0792 17.2027C10.8622 17.5547 9.57584 17.5927 8.34016 17.3131C7.10447 17.0335 5.95975 16.4455 5.01281 15.6038C4.06586 14.7621 3.34756 13.6943 2.92492 12.5" stroke="white" stroke-width="2" stroke-linecap="round" stroke-linejoin="round"/>
</g>
<defs>
<clipPath id="clip0_525_441">
<rect width="20" height="20" fill="white"/>
</clipPath>
</defs>
</svg>
