<svg width="559" height="401" viewBox="0 0 559 401" fill="none" xmlns="http://www.w3.org/2000/svg">
<rect x="116.266" width="1.86023" height="401" fill="url(#paint0_linear_508_1126)"/>
<rect x="68.8291" width="1.86023" height="401" fill="url(#paint1_linear_508_1126)"/>
<rect x="162.771" width="1.86023" height="401" fill="url(#paint2_linear_508_1126)"/>
<rect x="209.277" width="1.86023" height="401" fill="url(#paint3_linear_508_1126)"/>
<rect x="255.783" width="1.86023" height="401" fill="url(#paint4_linear_508_1126)"/>
<rect x="302.289" width="1.86023" height="401" fill="url(#paint5_linear_508_1126)"/>
<rect x="348.794" width="1.86023" height="401" fill="url(#paint6_linear_508_1126)"/>
<rect x="395.3" width="1.86023" height="401" fill="url(#paint7_linear_508_1126)"/>
<rect x="441.806" width="1.86023" height="401" fill="url(#paint8_linear_508_1126)"/>
<rect x="488.312" width="1.86023" height="401" fill="url(#paint9_linear_508_1126)"/>
<rect x="559" y="48.0125" width="1.74621" height="559" transform="rotate(90 559 48.0125)" fill="url(#paint10_linear_508_1126)"/>
<rect x="559" y="3.48413" width="1.74621" height="559" transform="rotate(90 559 3.48413)" fill="url(#paint11_linear_508_1126)"/>
<rect x="559" y="91.6675" width="1.74621" height="559" transform="rotate(90 559 91.6675)" fill="url(#paint12_linear_508_1126)"/>
<rect x="559" y="135.323" width="1.74621" height="559" transform="rotate(90 559 135.323)" fill="url(#paint13_linear_508_1126)"/>
<rect x="559" y="178.978" width="1.74621" height="559" transform="rotate(90 559 178.978)" fill="url(#paint14_linear_508_1126)"/>
<rect x="559" y="222.633" width="1.74621" height="559" transform="rotate(90 559 222.633)" fill="url(#paint15_linear_508_1126)"/>
<rect x="559" y="266.288" width="1.74621" height="559" transform="rotate(90 559 266.288)" fill="url(#paint16_linear_508_1126)"/>
<rect x="559" y="309.944" width="1.74621" height="559" transform="rotate(90 559 309.944)" fill="url(#paint17_linear_508_1126)"/>
<rect x="559" y="353.599" width="1.74621" height="559" transform="rotate(90 559 353.599)" fill="url(#paint18_linear_508_1126)"/>
<rect x="559" y="397.254" width="1.74621" height="559" transform="rotate(90 559 397.254)" fill="url(#paint19_linear_508_1126)"/>
<rect width="120" height="120" rx="10" transform="matrix(1 0 0 -1 102 385)" fill="white" fill-opacity="0.05"/>
<rect x="0.5" y="-0.5" width="119" height="119" rx="9.5" transform="matrix(1 0 0 -1 102 384)" stroke="white" stroke-opacity="0.1"/>
<rect width="38.534" height="38.534" rx="5" transform="matrix(1 0 0 -1 122 365)" fill="white" fill-opacity="0.05"/>
<rect width="38.534" height="38.534" rx="5" transform="matrix(1 0 0 -1 122 322.534)" fill="white" fill-opacity="0.05"/>
<rect width="38.534" height="38.534" rx="5" transform="matrix(1 0 0 -1 164.466 365)" fill="white" fill-opacity="0.05"/>
<rect width="38.534" height="38.534" rx="5" transform="matrix(1 0 0 -1 164.466 322.534)" fill="white" fill-opacity="0.05"/>
<rect width="275" height="173" rx="10" transform="matrix(1 0 0 -1 203 173)" fill="white" fill-opacity="0.05"/>
<rect width="148" height="94" rx="10" transform="matrix(1 0 0 -1 307 160)" fill="white" fill-opacity="0.03"/>
<rect width="36" height="36" rx="10" transform="matrix(1 0 0 -1 306 56)" fill="white" fill-opacity="0.03"/>
<rect width="36" height="36" rx="10" transform="matrix(1 0 0 -1 362 56)" fill="white" fill-opacity="0.03"/>
<rect width="36" height="36" rx="10" transform="matrix(1 0 0 -1 418 56)" fill="white" fill-opacity="0.03"/>
<rect width="56" height="142" rx="10" transform="matrix(1 0 0 -1 226 162)" fill="white" fill-opacity="0.03"/>
<circle cx="39" cy="39" r="39" transform="matrix(1 0 0 -1 329 339)" fill="white" fill-opacity="0.05"/>
<circle cx="32" cy="32" r="32" transform="matrix(1 0 0 -1 336 332)" fill="white" fill-opacity="0.1"/>
<circle cx="22" cy="22" r="22" transform="matrix(1 0 0 -1 346 322)" fill="white" fill-opacity="0.15"/>
<path d="M368 290C373.523 290 378 294.477 378 300C378 305.523 373.523 310 368 310C362.477 310 358 305.523 358 300C358 294.477 362.477 290 368 290Z" stroke="white" stroke-width="2" stroke-linecap="round" stroke-linejoin="round"/>
<path d="M358 300H378" stroke="white" stroke-width="2" stroke-linecap="round" stroke-linejoin="round"/>
<path d="M368 310C370.501 307.262 371.923 303.708 372 300C371.923 296.292 370.501 292.738 368 290C365.499 292.738 364.077 296.292 364 300C364.077 303.708 365.499 307.262 368 310V310Z" stroke="white" stroke-width="2" stroke-linecap="round" stroke-linejoin="round"/>
<path d="M222 329.5C219.5 329.5 217.5 327.5 217.5 325C217.5 322.5 219.5 320.5 222 320.5C224.5 320.5 226.5 322.5 226.5 325C226.5 327.5 224.5 329.5 222 329.5Z" fill="#6016FC"/>
<path d="M226.5 325H263C269.904 325 275.5 319.404 275.5 312.5V312.5C275.5 305.596 281.096 300 288 300H329M217.5 325C217.5 327.5 219.5 329.5 222 329.5C224.5 329.5 226.5 327.5 226.5 325C226.5 322.5 224.5 320.5 222 320.5C219.5 320.5 217.5 322.5 217.5 325Z" stroke="white" stroke-opacity="0.05" stroke-width="3" stroke-linecap="square" stroke-dasharray="0"/>
<path d="M368 265.5C365.5 265.5 363.5 263.5 363.5 261C363.5 258.5 365.5 256.5 368 256.5C370.5 256.5 372.5 258.5 372.5 261C372.5 263.5 370.5 265.5 368 265.5Z" fill="#6016FC"/>
<path d="M368 256.5V230.75C368 223.156 361.844 217 354.25 217V217C346.656 217 340.5 210.844 340.5 203.25V173M363.5 261C363.5 263.5 365.5 265.5 368 265.5C370.5 265.5 372.5 263.5 372.5 261C372.5 258.5 370.5 256.5 368 256.5C365.5 256.5 363.5 258.5 363.5 261Z" stroke="white" stroke-opacity="0.05" stroke-width="3" stroke-dasharray="0"/>
<defs>
<linearGradient id="paint0_linear_508_1126" x1="117.196" y1="0" x2="117.196" y2="401" gradientUnits="userSpaceOnUse">
<stop stop-color="white" stop-opacity="0"/>
<stop offset="0.479167" stop-color="white" stop-opacity="0.02"/>
<stop offset="0.994792" stop-color="white" stop-opacity="0"/>
</linearGradient>
<linearGradient id="paint1_linear_508_1126" x1="69.7592" y1="0" x2="69.7592" y2="401" gradientUnits="userSpaceOnUse">
<stop stop-color="white" stop-opacity="0"/>
<stop offset="0.479167" stop-color="white" stop-opacity="0.02"/>
<stop offset="0.994792" stop-color="white" stop-opacity="0"/>
</linearGradient>
<linearGradient id="paint2_linear_508_1126" x1="163.702" y1="0" x2="163.702" y2="401" gradientUnits="userSpaceOnUse">
<stop stop-color="white" stop-opacity="0"/>
<stop offset="0.479167" stop-color="white" stop-opacity="0.02"/>
<stop offset="0.994792" stop-color="white" stop-opacity="0"/>
</linearGradient>
<linearGradient id="paint3_linear_508_1126" x1="210.207" y1="0" x2="210.207" y2="401" gradientUnits="userSpaceOnUse">
<stop stop-color="white" stop-opacity="0"/>
<stop offset="0.479167" stop-color="white" stop-opacity="0.02"/>
<stop offset="0.994792" stop-color="white" stop-opacity="0"/>
</linearGradient>
<linearGradient id="paint4_linear_508_1126" x1="256.713" y1="0" x2="256.713" y2="401" gradientUnits="userSpaceOnUse">
<stop stop-color="white" stop-opacity="0"/>
<stop offset="0.479167" stop-color="white" stop-opacity="0.02"/>
<stop offset="0.994792" stop-color="white" stop-opacity="0"/>
</linearGradient>
<linearGradient id="paint5_linear_508_1126" x1="303.219" y1="0" x2="303.219" y2="401" gradientUnits="userSpaceOnUse">
<stop stop-color="white" stop-opacity="0"/>
<stop offset="0.479167" stop-color="white" stop-opacity="0.02"/>
<stop offset="0.994792" stop-color="white" stop-opacity="0"/>
</linearGradient>
<linearGradient id="paint6_linear_508_1126" x1="349.724" y1="0" x2="349.724" y2="401" gradientUnits="userSpaceOnUse">
<stop stop-color="white" stop-opacity="0"/>
<stop offset="0.479167" stop-color="white" stop-opacity="0.02"/>
<stop offset="0.994792" stop-color="white" stop-opacity="0"/>
</linearGradient>
<linearGradient id="paint7_linear_508_1126" x1="396.23" y1="0" x2="396.23" y2="401" gradientUnits="userSpaceOnUse">
<stop stop-color="white" stop-opacity="0"/>
<stop offset="0.479167" stop-color="white" stop-opacity="0.02"/>
<stop offset="0.994792" stop-color="white" stop-opacity="0"/>
</linearGradient>
<linearGradient id="paint8_linear_508_1126" x1="442.736" y1="0" x2="442.736" y2="401" gradientUnits="userSpaceOnUse">
<stop stop-color="white" stop-opacity="0"/>
<stop offset="0.479167" stop-color="white" stop-opacity="0.02"/>
<stop offset="0.994792" stop-color="white" stop-opacity="0"/>
</linearGradient>
<linearGradient id="paint9_linear_508_1126" x1="489.242" y1="0" x2="489.242" y2="401" gradientUnits="userSpaceOnUse">
<stop stop-color="white" stop-opacity="0"/>
<stop offset="0.479167" stop-color="white" stop-opacity="0.02"/>
<stop offset="0.994792" stop-color="white" stop-opacity="0"/>
</linearGradient>
<linearGradient id="paint10_linear_508_1126" x1="559.873" y1="48.0125" x2="559.873" y2="607.013" gradientUnits="userSpaceOnUse">
<stop stop-color="white" stop-opacity="0"/>
<stop offset="0.479167" stop-color="white" stop-opacity="0.02"/>
<stop offset="0.994792" stop-color="white" stop-opacity="0"/>
</linearGradient>
<linearGradient id="paint11_linear_508_1126" x1="559.873" y1="3.48413" x2="559.873" y2="562.484" gradientUnits="userSpaceOnUse">
<stop stop-color="white" stop-opacity="0"/>
<stop offset="0.479167" stop-color="white" stop-opacity="0.02"/>
<stop offset="0.994792" stop-color="white" stop-opacity="0"/>
</linearGradient>
<linearGradient id="paint12_linear_508_1126" x1="559.873" y1="91.6675" x2="559.873" y2="650.668" gradientUnits="userSpaceOnUse">
<stop stop-color="white" stop-opacity="0"/>
<stop offset="0.479167" stop-color="white" stop-opacity="0.02"/>
<stop offset="0.994792" stop-color="white" stop-opacity="0"/>
</linearGradient>
<linearGradient id="paint13_linear_508_1126" x1="559.873" y1="135.323" x2="559.873" y2="694.323" gradientUnits="userSpaceOnUse">
<stop stop-color="white" stop-opacity="0"/>
<stop offset="0.479167" stop-color="white" stop-opacity="0.02"/>
<stop offset="0.994792" stop-color="white" stop-opacity="0"/>
</linearGradient>
<linearGradient id="paint14_linear_508_1126" x1="559.873" y1="178.978" x2="559.873" y2="737.978" gradientUnits="userSpaceOnUse">
<stop stop-color="white" stop-opacity="0"/>
<stop offset="0.479167" stop-color="white" stop-opacity="0.02"/>
<stop offset="0.994792" stop-color="white" stop-opacity="0"/>
</linearGradient>
<linearGradient id="paint15_linear_508_1126" x1="559.873" y1="222.633" x2="559.873" y2="781.633" gradientUnits="userSpaceOnUse">
<stop stop-color="white" stop-opacity="0"/>
<stop offset="0.479167" stop-color="white" stop-opacity="0.02"/>
<stop offset="0.994792" stop-color="white" stop-opacity="0"/>
</linearGradient>
<linearGradient id="paint16_linear_508_1126" x1="559.873" y1="266.288" x2="559.873" y2="825.288" gradientUnits="userSpaceOnUse">
<stop stop-color="white" stop-opacity="0"/>
<stop offset="0.479167" stop-color="white" stop-opacity="0.02"/>
<stop offset="0.994792" stop-color="white" stop-opacity="0"/>
</linearGradient>
<linearGradient id="paint17_linear_508_1126" x1="559.873" y1="309.944" x2="559.873" y2="868.944" gradientUnits="userSpaceOnUse">
<stop stop-color="white" stop-opacity="0"/>
<stop offset="0.479167" stop-color="white" stop-opacity="0.02"/>
<stop offset="0.994792" stop-color="white" stop-opacity="0"/>
</linearGradient>
<linearGradient id="paint18_linear_508_1126" x1="559.873" y1="353.599" x2="559.873" y2="912.599" gradientUnits="userSpaceOnUse">
<stop stop-color="white" stop-opacity="0"/>
<stop offset="0.479167" stop-color="white" stop-opacity="0.02"/>
<stop offset="0.994792" stop-color="white" stop-opacity="0"/>
</linearGradient>
<linearGradient id="paint19_linear_508_1126" x1="559.873" y1="397.254" x2="559.873" y2="956.254" gradientUnits="userSpaceOnUse">
<stop stop-color="white" stop-opacity="0"/>
<stop offset="0.479167" stop-color="white" stop-opacity="0.02"/>
<stop offset="0.994792" stop-color="white" stop-opacity="0"/>
</linearGradient>
</defs>
</svg>
